<svg width="123" height="120" viewBox="0 0 123 120" fill="none" xmlns="http://www.w3.org/2000/svg">
<g clip-path="url(#clip0_85_24)">
<path d="M69.46 90.19C67.8375 91.9752 66.0933 93.6458 64.24 95.19C64.77 95.12 65.3 95.03 65.83 94.93C67.2631 94.6445 68.6611 94.2053 70 93.62C70.34 93.48 70.68 93.32 71 93.17C71.2372 93.4772 71.5128 93.7528 71.82 93.99C72.1226 94.2399 72.4593 94.4453 72.82 94.6C72.16 94.95 71.48 95.27 70.82 95.6C69.3402 96.2271 67.7983 96.6964 66.22 97C63.0271 97.6268 59.7429 97.6268 56.55 97C55.0099 96.6906 53.5055 96.2249 52.06 95.61C52.0404 95.6156 52.0196 95.6156 52 95.61C50.573 94.9937 49.2042 94.2508 47.91 93.39C46.6273 92.54 45.4345 91.5616 44.35 90.47C43.2594 89.3909 42.2841 88.2011 41.44 86.92C40.5742 85.6271 39.8278 84.2581 39.21 82.83C38.5885 81.3645 38.1161 79.8401 37.8 78.28C37.4936 76.6849 37.3396 75.0643 37.34 73.44C37.3384 71.8185 37.4958 70.2008 37.81 68.61C38.118 67.0696 38.5838 65.565 39.2 64.12C39.1956 64.1106 39.1932 64.1004 39.1932 64.09C39.1932 64.0796 39.1956 64.0694 39.2 64.06C39.8118 62.6277 40.555 61.2552 41.42 59.96C42.2701 58.6805 43.2485 57.491 44.34 56.41C45.4163 55.3133 46.6063 54.3345 47.89 53.49C49.1857 52.6089 50.5619 51.8522 52 51.23C53.4596 50.5994 54.9812 50.1235 56.54 49.81C58.1341 49.4954 59.7552 49.3379 61.38 49.34C63.0021 49.3367 64.6203 49.4975 66.21 49.82C67.7509 50.1213 69.2559 50.5838 70.7 51.2H70.76C72.1875 51.8256 73.5591 52.5717 74.86 53.43C76.137 54.2798 77.3262 55.2546 78.41 56.34C79.4983 57.4212 80.4733 58.6107 81.32 59.89C82.197 61.1865 82.9503 62.5626 83.57 64C84.201 65.4707 84.6802 67.0019 85 68.57C85.1811 69.4619 85.3113 70.3633 85.39 71.27L83.21 70.69C83.14 70.12 83.05 69.55 82.94 68.99C82.6566 67.573 82.2276 66.189 81.66 64.86C81.3037 64.0224 80.8963 63.2076 80.44 62.42H73.44C74.6294 64.4158 75.5379 66.566 76.14 68.81L73.77 68.18C73.0875 66.1479 72.1464 64.212 70.97 62.42H62.45V66.34C62.2909 66.4294 62.1403 66.5332 62 66.65C61.89 66.74 61.77 66.84 61.67 66.94C61.5293 67.0875 61.399 67.2445 61.28 67.41C61.0959 67.6831 60.948 67.9789 60.84 68.29C60.7269 68.6123 60.6595 68.949 60.64 69.29C60.6051 69.5589 60.6051 69.8311 60.64 70.1C60.6779 70.3234 60.7314 70.544 60.8 70.76V70.82C60.8025 70.8633 60.8025 70.9067 60.8 70.95C60.8173 70.9978 60.8373 71.0445 60.86 71.09L62.37 74.5V84.43H66.8L67.73 86.54H62.45V93.96C64.6363 92.1864 66.667 90.2293 68.52 88.11L69.46 90.24V90.19ZM25.3 58.63C25.154 58.9847 24.9372 59.3058 24.6628 59.5738C24.3884 59.8418 24.0623 60.051 23.7043 60.1886C23.3463 60.3262 22.964 60.3894 22.5808 60.3742C22.1976 60.359 21.8215 60.2659 21.4755 60.1004C21.1295 59.9349 20.8209 59.7005 20.5686 59.4117C20.3163 59.1228 20.1255 58.7856 20.008 58.4205C19.8905 58.0554 19.8487 57.6702 19.8851 57.2884C19.9216 56.9066 20.0355 56.5363 20.22 56.2C23.1905 49.9955 27.5049 44.53 32.85 40.2C33.4339 39.7802 34.1562 39.5993 34.869 39.6944C35.5819 39.7895 36.2315 40.1534 36.685 40.7116C37.1384 41.2698 37.3615 41.9801 37.3085 42.6974C37.2555 43.4146 36.9305 44.0845 36.4 44.57C31.6972 48.3696 27.9044 53.1737 25.3 58.63ZM96.3 93.11C98.8 100.46 105.94 100.26 108.14 93.11C110.29 95.04 116.62 95.42 118.98 96.73C119.754 97.1393 120.435 97.7045 120.98 98.39C121.872 99.6522 122.379 101.146 122.44 102.69L122.93 106.48C122.924 106.769 122.859 107.055 122.741 107.319C122.623 107.583 122.453 107.821 122.242 108.018C122.03 108.216 121.781 108.369 121.51 108.469C121.238 108.569 120.949 108.613 120.66 108.6H83.8C83.5117 108.612 83.2239 108.566 82.9535 108.466C82.683 108.365 82.4353 108.212 82.2248 108.015C82.0144 107.817 81.8454 107.58 81.7279 107.316C81.6103 107.053 81.5464 106.768 81.54 106.48L82 102.7C82.0691 101.156 82.5792 99.6634 83.47 98.4C84.0149 97.7145 84.6958 97.1493 85.47 96.74C87.84 95.42 94.17 95.04 96.31 93.11H96.3ZM14.76 93.11C17.25 100.46 24.4 100.26 26.6 93.11C28.74 95.04 35.07 95.42 37.43 96.73C38.2042 97.1393 38.8851 97.7045 39.43 98.39C40.3218 99.6522 40.8289 101.146 40.89 102.69L41.38 106.48C41.3736 106.768 41.3097 107.053 41.1921 107.316C41.0746 107.58 40.9056 107.817 40.6952 108.015C40.4847 108.212 40.237 108.365 39.9665 108.466C39.6961 108.566 39.4083 108.612 39.12 108.6H2.27C1.98171 108.613 1.69365 108.569 1.42267 108.47C1.15169 108.371 0.903233 108.218 0.691849 108.022C0.480466 107.825 0.310399 107.589 0.191603 107.326C0.0728069 107.063 0.00766836 106.778 0 106.49L0.49 102.7C0.565784 101.151 1.09041 99.6566 2 98.4C2.54487 97.7145 3.22585 97.1493 4 96.74C6.36 95.42 12.7 95.04 14.84 93.11H14.76ZM13.19 81.05C13.4432 81.11 13.7068 81.11 13.96 81.05L13.5 78.05C13.6815 77.2568 14.052 76.5192 14.58 75.9C15.0887 75.3702 15.7553 75.0194 16.48 74.9C17.48 74.83 17.8 75.56 18.79 76.21C21.5706 78.0514 24.8571 78.9779 28.19 78.86L27.72 80.52C27.6484 80.6256 27.6165 80.7531 27.63 80.88C27.63 80.88 27.63 80.88 27.63 80.95L27.57 81.27H27.87C27.9683 81.3321 28.0842 81.3602 28.2 81.35C28.85 81.29 29.26 81.35 29.36 81.58C29.46 81.81 29.36 82.48 28.95 83.46L26.9 86.84C26.214 88.1006 25.3632 89.2641 24.37 90.3C23.8792 90.7777 23.2987 91.1535 22.6619 91.4058C22.0252 91.6581 21.3448 91.7819 20.66 91.77C19.3505 91.7778 18.0902 91.2715 17.15 90.36C16.1971 89.3938 15.3735 88.3081 14.7 87.13L12.87 84.21C12.4007 83.5909 12.1009 82.8603 12 82.09C11.9883 81.9227 12.0156 81.7549 12.08 81.6C12.1359 81.4739 12.2304 81.3688 12.35 81.3C12.6075 81.1375 12.9055 81.0509 13.21 81.05H13.19ZM29.46 80.36L29.57 76.36C29.5154 74.7022 28.8862 73.1149 27.79 71.87C25.29 69.16 20.63 68.47 17.1 69.74C16.5189 69.949 15.9623 70.2206 15.44 70.55C13.9478 71.452 12.8459 72.8784 12.35 74.55C12.2436 74.9403 12.1667 75.3381 12.12 75.74C12.0492 77.2503 12.0793 78.7637 12.21 80.27C12.0518 80.3336 11.901 80.4141 11.76 80.51C11.4813 80.6888 11.262 80.9463 11.13 81.25C10.9894 81.5637 10.9276 81.907 10.95 82.25C11.0317 83.215 11.3777 84.1388 11.95 84.92L13.78 87.83C14.5053 89.0875 15.3929 90.2441 16.42 91.27C17.5506 92.365 19.0661 92.972 20.64 92.96C21.4582 92.9751 22.2713 92.8272 23.0318 92.5251C23.7924 92.2229 24.4852 91.7725 25.07 91.2C26.1373 90.1006 27.0521 88.8629 27.79 87.52L29.91 84V83.93C30.48 82.63 30.6 81.74 30.31 81.14C30.2229 80.9632 30.0996 80.8069 29.9479 80.6811C29.7963 80.5553 29.6198 80.4629 29.43 80.41L29.46 80.36ZM55.26 12C55.5035 12.0557 55.7565 12.0557 56 12L55.53 9C55.6997 8.20353 56.0755 7.46558 56.62 6.86C57.126 6.32664 57.7939 5.97514 58.52 5.86C59.52 5.79 59.83 6.52 60.83 7.16C63.6106 9.00141 66.8971 9.92792 70.23 9.81L69.76 11.47C69.6907 11.5766 69.659 11.7033 69.67 11.83C69.67 11.83 69.67 11.88 69.67 11.9L69.61 12.23H69.9C70.0013 12.2936 70.1209 12.3217 70.24 12.31C70.89 12.25 71.24 12.31 71.4 12.52C71.56 12.73 71.4 13.43 70.99 14.4L69 17.75C68.3097 19.0073 67.4556 20.1674 66.46 21.2C65.972 21.6788 65.3934 22.0554 64.7581 22.3078C64.1228 22.5602 63.4435 22.6833 62.76 22.67C61.4505 22.6778 60.1902 22.1715 59.25 21.26C58.2759 20.2914 57.4382 19.1947 56.76 18L54.93 15.08C54.4607 14.475 54.1574 13.7581 54.05 13C54.039 12.8327 54.0663 12.6651 54.13 12.51C54.1826 12.3875 54.274 12.2857 54.39 12.22C54.6512 12.0577 54.9524 11.9711 55.26 11.97V12ZM56.81 24C59.31 31.35 66.45 31.16 68.66 24C70.8 25.93 77.14 26.32 79.49 27.63C80.2672 28.0303 80.9493 28.593 81.49 29.28C82.3818 30.5422 82.8889 32.0357 82.95 33.58L83.44 37.38C83.431 37.6681 83.365 37.9515 83.2457 38.2139C83.1265 38.4763 82.9564 38.7124 82.7453 38.9086C82.5341 39.1049 82.2862 39.2573 82.0158 39.3571C81.7455 39.4569 81.458 39.502 81.17 39.49H44.33C44.042 39.502 43.7545 39.4569 43.4842 39.3571C43.2138 39.2573 42.9658 39.1049 42.7547 38.9086C42.5436 38.7124 42.3735 38.4763 42.2543 38.2139C42.135 37.9515 42.069 37.6681 42.06 37.38L42.55 33.58C42.6074 32.0428 43.1113 30.5556 44 29.3C44.5401 28.6124 45.2223 28.0495 46 27.65C48.35 26.34 54.7 25.95 56.83 24.02L56.81 24ZM71.53 11.28L71.64 7.28C71.5843 5.62057 70.9513 4.0326 69.85 2.79C67.35 1.90735e-06 62.69 -0.649998 59.17 0.620002C58.5849 0.82687 58.0247 1.09856 57.5 1.43C56.0214 2.315 54.9212 3.71432 54.41 5.36C54.3029 5.74968 54.2293 6.1478 54.19 6.55C54.1209 8.06351 54.1477 9.57987 54.27 11.09C54.1114 11.1485 53.9603 11.2257 53.82 11.32C53.5485 11.5068 53.3311 11.7621 53.19 12.06C53.0564 12.3549 52.9914 12.6763 53 13C53.0963 13.97 53.4598 14.8942 54.05 15.67L55.88 18.58C56.6044 19.8347 57.4959 20.9852 58.53 22C59.6606 23.095 61.1761 23.702 62.75 23.69C63.5634 23.7144 64.3735 23.5776 65.1338 23.2875C65.8941 22.9975 66.5895 22.5599 67.18 22C68.2464 20.9022 69.1581 19.6641 69.89 18.32L72 14.86V14.8C72.57 13.5 72.7 12.6 72.4 12C72.3145 11.8251 72.1927 11.6703 72.0426 11.5462C71.8926 11.422 71.7179 11.3313 71.53 11.28ZM94.73 81.05C94.4318 81.0534 94.1393 81.1325 93.88 81.28C93.7701 81.3572 93.6808 81.4602 93.62 81.58C93.5526 81.734 93.5251 81.9025 93.54 82.07C93.6346 82.8389 93.9352 83.5679 94.41 84.18L96.24 87.1C96.9195 88.2768 97.7462 89.3622 98.7 90.33C99.6402 91.2415 100.9 91.7478 102.21 91.74C103.593 91.7607 104.927 91.232 105.92 90.27C106.912 89.2334 107.763 88.07 108.45 86.81L110.51 83.42C110.94 82.42 111.07 81.83 110.92 81.54C110.77 81.25 110.41 81.26 109.76 81.31C109.641 81.3183 109.523 81.2904 109.42 81.23H109.13L109.19 80.91C109.184 80.887 109.184 80.863 109.19 80.84C109.177 80.7131 109.208 80.5856 109.28 80.48L109.75 78.82C106.418 78.9326 103.133 78.0065 100.35 76.17C99.35 75.52 99.05 74.79 98.04 74.86C97.3167 74.9834 96.6513 75.3336 96.14 75.86C95.6026 76.4704 95.2278 77.2064 95.05 78L95.52 81C95.2607 81.0652 94.9893 81.0652 94.73 81V81.05ZM111 80.36C111.189 80.4082 111.365 80.4978 111.516 80.6223C111.666 80.7468 111.787 80.9031 111.87 81.08C112.17 81.68 112.05 82.58 111.48 83.87V83.94L109.39 87.37C108.654 88.7115 107.743 89.949 106.68 91.05C106.097 91.6243 105.404 92.076 104.643 92.3782C103.882 92.6805 103.069 92.8273 102.25 92.81C100.666 92.8299 99.138 92.2224 98 91.12C96.9721 90.0911 96.0844 88.9311 95.36 87.67L93.53 84.77C92.9673 83.9836 92.6224 83.0625 92.53 82.1C92.506 81.7559 92.5715 81.4114 92.72 81.1C92.8577 80.7999 93.0758 80.5438 93.35 80.36C93.4909 80.2699 93.638 80.1897 93.79 80.12C93.6626 78.6135 93.6359 77.1001 93.71 75.59C93.7484 75.1877 93.8221 74.7895 93.93 74.4C94.4345 72.7328 95.5342 71.3092 97.02 70.4C97.5458 70.0705 98.1057 69.799 98.69 69.59C102.21 68.32 106.87 69.01 109.37 71.72C110.481 72.9566 111.115 74.5483 111.16 76.21L111 80.36ZM89.65 45C89.367 44.763 89.1335 44.4725 88.9627 44.1452C88.792 43.8179 88.6874 43.4602 88.6549 43.0925C88.6224 42.7248 88.6626 42.3542 88.7733 42.0021C88.884 41.6499 89.063 41.323 89.3 41.04C89.537 40.757 89.8275 40.5235 90.1548 40.3527C90.4821 40.182 90.8398 40.0774 91.2075 40.0449C91.5752 40.0124 91.9458 40.0526 92.2979 40.1633C92.6501 40.274 92.977 40.453 93.26 40.69C93.83 41.17 94.26 41.55 94.62 41.86C94.98 42.17 95.45 42.64 95.92 43.09C97.6148 44.7543 99.1794 46.5462 100.6 48.45C102.018 50.3523 103.291 52.3579 104.41 54.45C104.759 55.113 104.83 55.8875 104.608 56.6029C104.385 57.3184 103.888 57.9162 103.225 58.265C102.562 58.6138 101.788 58.6848 101.072 58.4626C100.357 58.2404 99.7588 57.743 99.41 57.08C98.4417 55.2355 97.3247 53.473 96.07 51.81C94.836 50.1537 93.4752 48.5957 92 47.15C91.67 46.81 91.28 46.46 90.86 46.07L89.69 45.07L89.65 45ZM75.72 111.83C76.4295 111.593 77.2041 111.647 77.8736 111.981C78.5432 112.314 79.0526 112.901 79.29 113.61C79.5274 114.319 79.4732 115.094 79.1394 115.764C78.8056 116.433 78.2195 116.943 77.51 117.18C75.1407 117.98 72.709 118.582 70.24 118.98C62.679 120.216 54.93 119.566 47.68 117.09C47.0018 116.824 46.4526 116.306 46.1466 115.645C45.8405 114.983 45.8014 114.229 46.0372 113.54C46.273 112.851 46.7656 112.279 47.4125 111.943C48.0594 111.608 48.8107 111.535 49.51 111.74C55.8763 113.913 62.6797 114.487 69.32 113.41C71.4935 113.062 73.6342 112.533 75.72 111.83ZM84.72 89.53C84.5826 89.6697 84.4197 89.7818 84.24 89.86C84.0586 89.9482 83.8614 89.9992 83.66 90.01C83.4441 90.0314 83.2261 90.0076 83.02 89.94C82.813 89.8788 82.6218 89.7729 82.46 89.63L78.52 86.39L76.9 90.3C76.7737 90.6117 76.6162 90.9099 76.43 91.19C76.2614 91.4485 76.0597 91.6838 75.83 91.89C75.6605 92.0403 75.4723 92.168 75.27 92.27C75.0807 92.3631 74.8784 92.4272 74.67 92.46C74.4321 92.5049 74.1879 92.5049 73.95 92.46C73.7142 92.3877 73.4939 92.2724 73.3 92.12C73.1213 91.9755 72.9631 91.8073 72.83 91.62C72.688 91.4145 72.5642 91.197 72.46 90.97C69.46 84.18 65.86 76.88 63.17 70.04C63.1362 69.9496 63.1127 69.8557 63.1 69.76C63.09 69.6669 63.09 69.5731 63.1 69.48C63.1116 69.3678 63.1351 69.2572 63.17 69.15C63.2098 69.042 63.26 68.9382 63.32 68.84C63.3541 68.7978 63.3909 68.7577 63.43 68.72C63.4653 68.6814 63.5057 68.6478 63.55 68.62C63.6203 68.5609 63.6976 68.5106 63.78 68.47C63.8584 68.4299 63.9429 68.4029 64.03 68.39C64.1064 68.3803 64.1836 68.3803 64.26 68.39C64.343 68.3795 64.427 68.3795 64.51 68.39H64.6C72 70.15 79.4 72.23 86.75 74.18C86.9908 74.2451 87.2251 74.3322 87.45 74.44C87.6537 74.5395 87.8423 74.6674 88.01 74.82C88.1937 74.9861 88.3432 75.1865 88.45 75.41C88.5523 75.6294 88.6068 75.868 88.61 76.11C88.6194 76.3205 88.5888 76.5309 88.52 76.73C88.458 76.9463 88.3636 77.152 88.24 77.34C88.0748 77.6011 87.8727 77.8369 87.64 78.04C87.3905 78.2692 87.1192 78.4735 86.83 78.65C85.62 79.36 84.42 80.11 83.22 80.84L87.15 84.1C87.3135 84.2415 87.4463 84.4151 87.54 84.61C87.6312 84.7944 87.6856 84.9948 87.7 85.2C87.7198 85.4119 87.6995 85.6257 87.64 85.83C87.5757 86.0317 87.4777 86.2211 87.35 86.39C86.5153 87.4697 85.6241 88.5045 84.68 89.49L84.72 89.53ZM83.48 88L85.71 85.38L80.98 81.38L80.9 81.3L80.81 81.17C80.6875 80.951 80.6518 80.694 80.71 80.45C80.7371 80.3273 80.7892 80.2115 80.8632 80.11C80.9372 80.0084 81.0315 79.9233 81.14 79.86C82.68 79 84.3 78 85.84 77C86.0091 76.8963 86.1696 76.7793 86.32 76.65C86.4317 76.5439 86.5322 76.4266 86.62 76.3C86.6478 76.2644 86.6682 76.2236 86.68 76.18L86.55 76.11C86.4544 76.0647 86.3537 76.0311 86.25 76.01L65.5 70.53L74.22 90.15C74.2637 90.2466 74.3138 90.3401 74.37 90.43L74.45 90.53L74.56 90.44C74.6716 90.3365 74.7691 90.2188 74.85 90.09C74.9579 89.923 75.0483 89.7454 75.12 89.56L77.21 84.44C77.2205 84.4039 77.2374 84.37 77.26 84.34L77.34 84.24C77.5097 84.0584 77.741 83.9465 77.9888 83.9262C78.2365 83.9059 78.4829 83.9785 78.68 84.13L83.48 88ZM58.57 95.17C55.48 92.6514 52.7392 89.7324 50.42 86.49H43.76C44.3973 87.3613 45.1029 88.1805 45.87 88.94C46.8563 89.9281 47.9383 90.8158 49.1 91.59C50.2873 92.3799 51.5502 93.0498 52.87 93.59C54.1979 94.17 55.5818 94.6123 57 94.91C57.52 95.01 58.06 95.1 58.59 95.17H58.57ZM42.37 84.39H49.07C47.2753 81.3741 46.2453 77.9651 46.07 74.46H39.47C39.5246 75.5885 39.6617 76.7115 39.88 77.82C40.1556 79.2552 40.5847 80.6566 41.16 82C41.517 82.8355 41.921 83.6501 42.37 84.44V84.39ZM39.47 72.39H46.13C46.4462 68.8706 47.5722 65.472 49.42 62.46H42.37C41.921 63.2499 41.517 64.0645 41.16 64.9C40.5928 66.2197 40.1606 67.5933 39.87 69C39.6489 70.1078 39.5152 71.2313 39.47 72.36V72.39ZM43.75 60.39H50.75C53.0388 57.1826 55.7046 54.2617 58.69 51.69C58.09 51.76 57.52 51.85 56.95 51.96C55.5348 52.2425 54.1536 52.6749 52.83 53.25C51.5152 53.8007 50.2533 54.4702 49.06 55.25C47.8983 56.0243 46.8163 56.9119 45.83 57.9C45.0606 58.6538 44.3549 59.4699 43.72 60.34L43.75 60.39ZM64.08 51.69C67.0587 54.2327 69.7181 57.1271 72 60.31H79C77.5277 58.3145 75.7211 56.589 73.66 55.21C72.4704 54.4239 71.2079 53.7542 69.89 53.21C68.5759 52.6538 67.2089 52.2316 65.81 51.95C65.23 51.84 64.65 51.75 64.08 51.68V51.69ZM62.45 53V60.33H69.45C67.3736 57.6536 65.028 55.1974 62.45 53ZM60.34 93.91V86.49H53C55.1468 89.243 57.6104 91.7335 60.34 93.91ZM60.34 84.39V74.46H48.19C48.4011 78.0065 49.5503 81.4333 51.52 84.39H60.34ZM60.34 72.39V62.42H51.89C49.8707 65.378 48.6134 68.789 48.23 72.35L60.34 72.39ZM60.34 60.39V53C57.762 55.1974 55.4164 57.6536 53.34 60.33L60.34 60.39Z" fill="black"/>
</g>
<defs>
<clipPath id="clip0_85_24">
<rect width="122.88" height="119.59" fill="white"/>
</clipPath>
</defs>
</svg>
